<?xml version="1.0" encoding="utf-8"?>
<!-- Generator: Adobe Illustrator 23.1.1, SVG Export Plug-In . SVG Version: 6.00 Build 0)  -->
<svg version="1.1" id="Calque_1" xmlns="http://www.w3.org/2000/svg" xmlns:xlink="http://www.w3.org/1999/xlink" x="0px" y="0px"
	 viewBox="0 0 32 32" style="enable-background:new 0 0 32 32;" xml:space="preserve">
<style type="text/css">
	.st0{fill:#FFFFFF;}
</style>
<g>
	<g>
		<path class="st0" d="M17,11.1c-3.1,0-5.6,2.5-5.6,5.6c0,3.1,2.5,5.6,5.6,5.6c3.1,0,5.6-2.5,5.6-5.6C22.6,13.6,20.1,11.1,17,11.1z
			 M17,20.7c-2.2,0-3.9-1.8-3.9-3.9c0-2.2,1.8-3.9,3.9-3.9c2.2,0,3.9,1.8,3.9,3.9C20.9,18.9,19.2,20.7,17,20.7z M27.9,14l-1.7-0.4
			c-0.1-0.4-0.3-0.8-0.5-1.2l0.9-1.4c0.2-0.3,0.2-0.8-0.1-1.1l-2.7-2.7c-0.3-0.3-0.7-0.3-1.1-0.1L21.3,8c-0.4-0.2-0.8-0.4-1.2-0.5
			l-0.4-1.7c-0.1-0.4-0.4-0.7-0.8-0.7H15c-0.4,0-0.7,0.3-0.8,0.7l-0.4,1.7C13.4,7.6,13,7.8,12.6,8L11.2,7c-0.3-0.2-0.8-0.2-1.1,0.1
			L7.4,9.9c-0.3,0.3-0.3,0.7-0.1,1.1l0.9,1.4c-0.2,0.4-0.4,0.8-0.5,1.2L6,14c-0.4,0.1-0.7,0.4-0.7,0.8v3.9c0,0.4,0.3,0.7,0.7,0.8
			l1.7,0.4c0.1,0.4,0.3,0.8,0.5,1.2l-0.9,1.4c-0.2,0.3-0.2,0.8,0.1,1.1l2.7,2.7c0.3,0.3,0.7,0.3,1.1,0.1l1.4-0.9
			c0.4,0.2,0.8,0.4,1.2,0.5l0.4,1.7c0.1,0.4,0.4,0.7,0.8,0.7h3.9c0.4,0,0.7-0.3,0.8-0.7l0.4-1.7c0.4-0.1,0.8-0.3,1.2-0.5l1.4,0.9
			c0.3,0.2,0.8,0.2,1.1-0.1l2.7-2.7c0.3-0.3,0.3-0.7,0.1-1.1l-0.9-1.4c0.2-0.4,0.4-0.8,0.5-1.2l1.7-0.4c0.4-0.1,0.7-0.4,0.7-0.8
			v-3.9C28.6,14.4,28.3,14.1,27.9,14z M26.9,18l-1.5,0.3c-0.3,0.1-0.6,0.3-0.6,0.6c-0.2,0.6-0.4,1.2-0.7,1.8c-0.2,0.3-0.1,0.6,0,0.9
			l0.8,1.3l-1.8,1.8l-1.3-0.8c-0.3-0.2-0.6-0.2-0.9,0c-0.6,0.3-1.2,0.6-1.8,0.7c-0.3,0.1-0.5,0.3-0.6,0.6l-0.3,1.5h-2.5l-0.3-1.5
			c-0.1-0.3-0.3-0.6-0.6-0.6c-0.6-0.2-1.2-0.4-1.8-0.7c-0.3-0.2-0.6-0.1-0.9,0l-1.3,0.8l-1.8-1.8l0.8-1.3c0.2-0.3,0.2-0.6,0-0.9
			c-0.3-0.6-0.6-1.2-0.7-1.8c-0.1-0.3-0.3-0.5-0.6-0.6L7.1,18v-2.5l1.5-0.3c0.3-0.1,0.6-0.3,0.6-0.6c0.2-0.6,0.4-1.2,0.7-1.8
			c0.2-0.3,0.1-0.6,0-0.9l-0.8-1.3l1.8-1.8l1.3,0.8c0.3,0.2,0.6,0.2,0.9,0c0.6-0.3,1.2-0.6,1.8-0.7c0.3-0.1,0.5-0.3,0.6-0.6l0.3-1.5
			h2.5l0.3,1.5c0.1,0.3,0.3,0.6,0.6,0.6c0.6,0.2,1.2,0.4,1.8,0.7c0.3,0.2,0.6,0.1,0.9,0l1.3-0.8l1.8,1.8l-0.8,1.3
			c-0.2,0.3-0.2,0.6,0,0.9c0.3,0.6,0.6,1.2,0.7,1.8c0.1,0.3,0.3,0.5,0.6,0.6l1.5,0.3V18z"/>
	</g>
</g>
</svg>
