<svg xmlns="http://www.w3.org/2000/svg" width="11" height="15">
    <path fill="#9F9F9F" fill-rule="evenodd" d="M9.3 15.002H.935c-.514 0-.929-.432-.929-.968V1.913c0-.535.415-.968.929-.968h2.351v.967H1.399c-.257 0-.464.216-.464.482V13.55c0 .268.207.484.464.484H8.865c.257 0 .465-.216.465-.484V2.394c0-.266-.208-.482-.465-.482H7.006V.945H9.3c.515 0 .961.433.961.968v12.121c0 .536-.446.968-.961.968zM2.085 5.568h6.096v1.22H2.085v-1.22zm6.096 6.899H2.085v-1.22h6.096v1.22zM2.085 8.351h6.096V9.57H2.085V8.351zm5.58-5.629v.512H2.601v-.512c0-.143.161-.258.359-.258h1.079L4.037.352s1.078-.805 2.187.014v2.098h1.081c.197 0 .36.116.36.258z"/>
</svg>
