<?xml version="1.0" encoding="utf-8"?>
<!-- Generator: Adobe Illustrator 23.1.1, SVG Export Plug-In . SVG Version: 6.00 Build 0)  -->
<svg version="1.1" id="Layer_1" xmlns="http://www.w3.org/2000/svg" xmlns:xlink="http://www.w3.org/1999/xlink" x="0px" y="0px"
	 viewBox="0 0 22.2 18.7" style="enable-background:new 0 0 22.2 18.7;" xml:space="preserve">
<style type="text/css">
	.st0{fill:#7B96C4;}
</style>
<g>
	<g>
		<path class="st0" d="M18.2,2.8H5.1c-0.7,0-1.2,0.5-1.2,1.1v9c0,0.7,0.5,1.1,1.2,1.1h6v1.4H9.4c-0.3,0-0.6,0.3-0.6,0.6
			c0,0.3,0.3,0.6,0.6,0.6h4.4c0.3,0,0.6-0.3,0.6-0.6c0-0.3-0.3-0.6-0.6-0.6h-1.6V14h6c0.7,0,1.2-0.5,1.2-1.1V4
			C19.4,3.3,18.9,2.8,18.2,2.8z M5.1,4h13.2v6H5L5.1,4C5,4,5,4,5.1,4z M5.1,13v-1.8h13.2V13H5.1z"/>
	</g>
</g>
</svg>
