<?xml version="1.0" encoding="utf-8"?>
<!-- Generator: Adobe Illustrator 23.1.1, SVG Export Plug-In . SVG Version: 6.00 Build 0)  -->
<svg version="1.1" id="Layer_1" xmlns="http://www.w3.org/2000/svg" xmlns:xlink="http://www.w3.org/1999/xlink" x="0px" y="0px"
	 viewBox="0 0 22.2 18.7" style="enable-background:new 0 0 22.2 18.7;" xml:space="preserve">
<style type="text/css">
	.st0{fill:#7B96C4;}
</style>
<g>
	<g>
		<path class="st0" d="M10.5,7.1L8.6,8.9L7.9,8.2C7.7,8,7.3,8,7,8.2C6.9,8.3,6.8,8.5,6.8,8.7C6.8,8.8,6.9,9,7,9.1l1.2,1.1
			c0.1,0.1,0.3,0.2,0.5,0.2c0.2,0,0.3-0.1,0.5-0.2L11.4,8c0.1-0.1,0.2-0.3,0.2-0.4c0-0.2-0.1-0.3-0.2-0.4
			C11.1,6.9,10.7,6.9,10.5,7.1z M10.5,11.6l-1.8,1.8l-0.7-0.7c-0.1-0.1-0.3-0.2-0.5-0.2c-0.2,0-0.3,0.1-0.5,0.2
			c-0.1,0.1-0.2,0.3-0.2,0.4c0,0.2,0.1,0.3,0.2,0.4l1.2,1.1c0.1,0.1,0.3,0.2,0.5,0.2c0.2,0,0.3-0.1,0.5-0.2l2.3-2.2
			c0.3-0.2,0.3-0.6,0-0.9C11.1,11.3,10.7,11.3,10.5,11.6z M12.6,8.7c0,0.3,0.3,0.6,0.6,0.6h2.3c0.4,0,0.6-0.3,0.6-0.6S15.9,8,15.5,8
			h-2.3C12.9,8,12.6,8.3,12.6,8.7z M15.5,12.5h-2.3c-0.4,0-0.6,0.3-0.6,0.6c0,0.3,0.3,0.6,0.6,0.6h2.3c0.4,0,0.6-0.3,0.6-0.6
			C16.2,12.8,15.9,12.5,15.5,12.5z M17.3,2.5H15V2c0-0.3-0.3-0.6-0.6-0.6h-1.2c-0.3-0.7-0.9-1.1-1.7-1.1s-1.4,0.4-1.7,1.1H8.6
			C8.3,1.3,8,1.6,8,2v0.5H5.7C5.1,2.5,4.5,3,4.5,3.6V17c0,0.7,0.6,1.2,1.2,1.2h11.5c0.7,0,1.2-0.5,1.2-1.2V3.6
			C18.5,3,17.9,2.5,17.3,2.5z M9.3,2.6h1.1C10.7,2.6,11,2.3,11,2c0-0.3,0.2-0.5,0.5-0.5S12,1.7,12,2c0,0.3,0.3,0.6,0.6,0.6h1.1v1
			H9.3V2.6z M17.2,17H5.8V3.7H8v0.5c0,0.3,0.3,0.6,0.6,0.6h5.8c0.4,0,0.6-0.3,0.6-0.6V3.7h2.2V17z"/>
	</g>
</g>
</svg>
