<?xml version="1.0" encoding="utf-8"?>
<!-- Generator: Adobe Illustrator 23.1.1, SVG Export Plug-In . SVG Version: 6.00 Build 0)  -->
<svg version="1.1" id="Calque_1" xmlns="http://www.w3.org/2000/svg" xmlns:xlink="http://www.w3.org/1999/xlink" x="0px" y="0px"
	 viewBox="0 0 32 32" style="enable-background:new 0 0 32 32;" xml:space="preserve">
<style type="text/css">
	.st0{fill:#FFFFFF;}
</style>
<path class="st0" d="M25,8.8h-2.4c-0.1-0.3-0.4-0.5-0.7-0.6V7c0-1-0.9-1.9-1.9-1.9h-5.8c-1.1,0-1.9,0.8-1.9,1.9v1.2
	c-0.3,0.1-0.6,0.3-0.7,0.6H9.2c-2.1,0-3.8,1.6-3.8,3.7v10.3c0,1.7,1.4,3,3.1,3h17.1c1.7,0,3.1-1.4,3.1-3V12.5
	C28.8,10.5,27.1,8.8,25,8.8z M10.3,10.6V24H8.5c-0.7,0-1.3-0.6-1.3-1.3V12.5c0-1.1,0.9-1.9,2-1.9H10.3z M14.1,8.2V7
	c0-0.1,0.1-0.1,0.1-0.1H20c0.1,0,0.1,0,0.1,0.1v1.2c-0.3,0.1-0.6,0.3-0.7,0.6h-4.7C14.6,8.5,14.4,8.3,14.1,8.2z M12,24V10.6l10.1,0
	V24H12z M27,12.5v10.3c0,0.7-0.6,1.3-1.3,1.3H24V10.6H25C26.1,10.6,27,11.4,27,12.5z"/>
</svg>
